# xmcd
#
# Track frame offsets:
#	150
#	10825
#	19911
#	30904
#	41898
#	51623
#	61705
#	72978
#	83445
#	94640
#	106268
#	118440
#
# Disc length: 1720 seconds
#
# Revision: 1
# Processed by: cddbd v1.5.2PL0 Copyright (c) Steve Scherf et al.
# Submitted via: audiograbber 1.83.01
#
DISCID=9706b60c
DTITLE=Buck Owens - Country
DYEAR=2014
DGENRE=Country
TTITLE0=Act Naturally
TTITLE1=Love's Gonna Live Here
TTITLE2=My Heart Skips a Beat
TTITLE3=Together Again
TTITLE4=I Don't Care (Just as Long as You Love Me)
TTITLE5=I've Got a Tiger by the Tail
TTITLE6=Crying Time
TTITLE7=Waitin' in Your Welfare Line
TTITLE8=Open Up Your Heart
TTITLE9=Streets of Bakersfield
TTITLE10=Under Your Spell Again
TTITLE11=Who's Gonna Mow Your Grass
EXTD=
EXTT0=
EXTT1=
EXTT2=
EXTT3=
EXTT4=
EXTT5=
EXTT6=
EXTT7=
EXTT8=
EXTT9=
EXTT10=
EXTT11=
PLAYORDER=
